<?xml version="1.0" encoding="UTF-8"?>
<svg width="255px" height="256px" viewBox="0 0 255 256" version="1.1" xmlns="http://www.w3.org/2000/svg" xmlns:xlink="http://www.w3.org/1999/xlink">
    <!-- Generator: Sketch 51.3 (57544) - http://www.bohemiancoding.com/sketch -->
    <title>Group 7</title>
    <desc>Created with Sketch.</desc>
    <defs></defs>
    <g id="Website" stroke="none" stroke-width="1" fill="none" fill-rule="evenodd">
        <g id="TeamSite---Landing-Page" transform="translate(-1313.000000, -11210.000000)" fill="#FFFFFF">
            <g id="Group-7" transform="translate(1313.000000, 11210.000000)">
                <path d="M127.833646,256 C57.3461735,256 0,198.5792 0,128 C0,57.4208 57.3461735,0 127.833646,0 C161.978013,0 194.087268,13.309952 218.224817,37.4912 L222,41.271296 L214.469831,48.811264 L210.694648,45.031168 C188.563576,22.871296 159.131669,10.670848 127.832879,10.670848 C63.2257542,10.670848 10.6554432,63.309568 10.6554432,128.000768 C10.6554432,192.691968 63.2257542,245.330693 127.832879,245.330693 C159.131669,245.330693 188.564087,233.120773 210.694648,210.960128 L214.469831,207.180032 L222,214.72 L218.224817,218.500096 C194.086245,242.690053 161.978013,255.998982 127.833646,255.998982 L127.833646,256 Z" id="Fill-1"></path>
                <path d="M128.073434,214 C81.1646185,214 43,175.644021 43,128.5 C43,81.3559792 81.1646185,43 128.073434,43 C150.79482,43 172.159401,51.8875675 188.231266,68.0397621 L192,71.8273926 L184.482696,79.3823893 L180.713962,75.5947588 C166.656376,61.4666867 147.962783,53.6810872 128.072669,53.6810872 C87.0264977,53.6810872 53.6270329,87.2377595 53.6270329,128.5 C53.6270329,169.74172 87.0162885,203.318913 128.072669,203.318913 C147.952829,203.318913 166.645656,195.523309 180.713962,181.405241 L184.482696,177.617611 L192,185.172607 L188.231266,188.960238 C172.159656,205.112432 150.794055,214 128.073434,214 Z" id="Fill-2"></path>
                <path d="M127.881829,170 C104.235078,170 85,150.936195 85,127.5 C85,104.063805 104.235078,85 127.881829,85 C139.338337,85 150.101502,89.4223662 158.201145,97.4401998 L162,101.205229 L154.422615,108.715143 L150.62376,104.950114 C144.553723,98.9440695 136.473889,95.6275498 127.881572,95.6275498 C110.154098,95.6275498 95.7227728,109.930376 95.7227728,127.5 C95.7227728,145.069624 110.154098,159.37245 127.881572,159.37245 C136.473889,159.37245 144.55398,156.055676 150.613727,150.029743 L154.402548,146.264714 L161.989966,153.764684 L158.191112,157.529713 C150.111278,165.577379 139.33808,169.999745 127.882087,169.999745 L127.881829,170 Z" id="Fill-3"></path>
                <polygon id="Fill-4" points="120 128.445983 247.445983 1 255 8.5540169 127.554017 136"></polygon>
                <path d="M127.5,138 C121.713664,138 117,133.286336 117,127.5 C117,121.713664 121.713664,117 127.5,117 C133.286336,117 138,121.713664 138,127.5 C138,133.286336 133.286336,138 127.5,138 Z M127.5,127.490175 L132.744962,127.500025 L127.5,127.490175 Z" id="Fill-5"></path>
                <path d="M213.499996,150 C201.636034,150 192,140.353643 192,128.5 C192,116.636036 201.646356,107 213.499996,107 C225.363958,107 234.999992,116.646357 234.999992,128.5 C235.010082,140.363964 225.3637,150 213.499996,150 Z M213.499996,117.744839 C207.562983,117.744839 202.744837,122.57305 202.744837,128.5 C202.744837,134.42695 207.562983,139.255161 213.499996,139.255161 C219.437009,139.255161 224.255155,134.42695 224.255155,128.5 C224.255155,122.57305 219.437009,117.744839 213.499996,117.744839 Z" id="Fill-6"></path>
            </g>
        </g>
    </g>
</svg>