<?xml version="1.0" encoding="UTF-8"?>
<svg width="125px" height="232px" viewBox="0 0 125 232" version="1.1" xmlns="http://www.w3.org/2000/svg" xmlns:xlink="http://www.w3.org/1999/xlink">
    <!-- Generator: Sketch 51.3 (57544) - http://www.bohemiancoding.com/sketch -->
    <title>Group 9</title>
    <desc>Created with Sketch.</desc>
    <defs></defs>
    <g id="Website" stroke="none" stroke-width="1" fill="none" fill-rule="evenodd">
        <g id="TeamSite---Landing-Page" transform="translate(-1378.000000, -10075.000000)">
            <g id="grow2-+-grow1-Mask" transform="translate(960.000000, 9718.000000)">
                <g id="Group-9" transform="translate(418.000000, 360.000000)">
                    <path d="M120.482414,131.100516 L65.3549173,131.100516 C65.4387349,130.793209 65.5504679,130.485925 65.5504679,130.150678 L65.5504679,119.097287 C71.165725,118.994852 86.3816294,117.747027 96.3169751,107.820287 C108.460043,95.686755 107.621867,75.7855498 107.584678,74.9488038 C107.50086,73.1329457 106.038867,71.6802498 104.222914,71.5870396 C104.222914,71.5870396 103.775934,71.5591004 102.965792,71.5591004 C98.1980088,71.5591004 81.8273472,72.3785632 71.3410841,82.8546947 C68.9200036,85.2757752 67.0388746,87.9948422 65.5396451,90.825952 L65.5489661,33.5386489 C65.5489661,31.5831187 63.9659189,30 62.0103171,30 C60.0547154,30 58.4716682,31.5830472 58.4716682,33.5386489 L58.4716682,67.3970637 C56.9724148,64.5754894 55.0913097,61.8471253 52.6702292,59.4258064 C42.1942168,48.9497941 25.8228401,48.1395092 21.0550566,48.1395092 C20.2449148,48.1395092 19.7886141,48.1581274 19.7886141,48.1581274 C17.972756,48.2512661 16.5200601,49.7039382 16.4268499,51.5198916 C16.3895897,52.3579726 15.5608297,72.2578429 27.6945527,84.3913752 C37.6306136,94.3274361 52.8565303,95.5658679 58.4610599,95.6683752 L58.4610599,130.132299 C58.4610599,130.467545 58.5634957,130.774829 58.6566105,131.082136 L3.53864894,131.091457 C1.58311868,131.091457 0,132.674505 0,134.630106 L0,153.412551 C0,155.368081 1.58304717,156.9512 3.53864894,156.9512 L86.6673388,156.9512 C88.6228691,156.9512 90.2059878,155.368153 90.2059878,153.412551 C90.2059878,151.457021 88.6229406,149.873902 86.6673388,149.873902 L7.07634433,149.873902 L7.07634433,138.168517 L116.940357,138.168517 L116.940357,149.873902 L103.381972,149.873902 C101.640611,149.873902 100.150607,151.149666 99.8805119,152.872361 L89.3019922,221.511757 L30.98008,221.511757 L22.6364588,165.862188 C22.3477934,163.925275 20.5226143,162.593634 18.6136415,162.900917 C16.6767294,163.189583 15.3543847,164.996144 15.6430739,166.933032 L24.442972,225.588684 C24.7036983,227.320724 26.1936306,228.59644 27.9444323,228.59644 L92.3381167,228.59644 C94.0794781,228.59644 95.569482,227.320677 95.8395769,225.597981 L106.418097,156.95859 L120.488541,156.95859 C122.444071,156.95859 124.02719,155.375543 124.02719,153.419941 L124.02719,134.637496 C124.017893,132.672645 122.434822,131.098847 120.479244,131.098847 L120.482414,131.100516 Z M76.35181,87.8448 C83.5966955,80.5999146 94.7430582,79.0170104 100.450572,78.7004296 C100.133967,84.3063895 98.5695383,95.5459624 91.3062015,102.808727 C84.061316,110.053613 72.9149533,111.636517 67.197904,111.953097 C67.5238297,106.347138 69.0882587,95.1075647 76.3515716,87.8448 L76.35181,87.8448 Z M32.7051356,79.3986715 C25.4790829,72.1726188 23.8959404,60.9049159 23.5793596,55.290374 C29.2968856,55.6069787 40.4341895,57.1900497 47.6781214,64.4347445 C54.9041742,71.6607972 56.4873167,82.9285 56.8131947,88.5430419 C51.0863715,88.2264373 39.9490676,86.6433663 32.7048972,79.3986715 L32.7051356,79.3986715 Z" id="Fill-1" fill="#005EB8"></path>
                    <g id="Group-7" transform="translate(46.000000, 0.000000)"></g>
                    <circle id="Oval-2" stroke="#005EB8" stroke-width="5" cx="62" cy="16" r="16"></circle>
                    <g id="Group-6" transform="translate(63.158291, 15.158291) rotate(-45.000000) translate(-63.158291, -15.158291) translate(56.158291, 9.658291)" fill="#005EB8" stroke="#005EB8">
                        <rect id="Rectangle-7" x="0.971404521" y="7.2475469" width="12.3333333" height="3" rx="1.5"></rect>
                        <rect id="Rectangle-7" x="0.5" y="0.5" width="3" height="7" rx="1.5"></rect>
                    </g>
                </g>
            </g>
        </g>
    </g>
</svg>