<?xml version="1.0" encoding="UTF-8"?>
<svg width="459px" height="401px" viewBox="0 0 459 401" version="1.1" xmlns="http://www.w3.org/2000/svg" xmlns:xlink="http://www.w3.org/1999/xlink">
    <!-- Generator: Sketch 51.3 (57544) - http://www.bohemiancoding.com/sketch -->
    <title>hero-image copy</title>
    <desc>Created with Sketch.</desc>
    <defs></defs>
    <g id="Website" stroke="none" stroke-width="1" fill="none" fill-rule="evenodd">
        <g id="TeamSite---Landing-Page" transform="translate(-1129.000000, -389.000000)" fill="#FFFFFF">
            <g id="hero-image-copy" transform="translate(1117.000000, 389.000000)">
                <path d="M199.380516,274.127455 C199.315482,273.730072 199.163754,273.354349 198.983133,273.050892 C198.795281,272.740204 198.549608,272.494549 198.275062,272.277786 C198.210028,272.248876 198.152225,272.18386 198.08721,272.15495 C197.841555,272.003222 197.624792,271.880385 197.350228,271.786459 C197.198499,271.721443 197.010647,271.692533 196.830009,271.692533 C196.671048,271.634731 196.54823,271.569715 196.396502,271.569715 C196.273665,271.569715 196.179739,271.569715 196.121937,271.598607 L196.028011,271.598607 L195.934085,271.598607 C195.84014,271.598607 195.782338,271.627517 195.68843,271.627517 L16.9716159,308.570942 C15.7072017,308.845507 14.7246394,309.864267 14.536713,311.157518 C14.3488607,312.450843 14.9991301,313.71524 16.1407269,314.32933 L67.3395395,341.330787 L76.3278177,391.177499 L76.3278177,391.300317 C76.2989259,391.545971 76.2989259,391.791626 76.3278177,392.037298 C76.3278177,392.160135 76.356728,392.282953 76.392852,392.405789 C76.4578864,392.680354 76.5807044,392.962133 76.7324326,393.236697 C76.7613245,393.301732 76.7613245,393.359534 76.797467,393.388426 C76.797467,393.417336 76.8263588,393.417336 76.8263588,393.417336 C76.8552691,393.482352 76.920285,393.511262 76.9780871,393.569064 C77.1298154,393.756917 77.2887759,393.908645 77.4405042,394.060373 C77.4694145,394.089265 77.5055385,394.125408 77.5055385,394.154299 C77.5344303,394.18321 77.5994647,394.18321 77.6572668,394.219334 C77.8451191,394.342152 78.0257577,394.436096 78.2425203,394.530022 C78.3364465,394.558914 78.3942486,394.595038 78.4881748,394.623949 C78.7627396,394.717875 79.044518,394.746767 79.3479746,394.746767 L79.3768664,394.746767 L79.5286132,394.746767 C80.388413,394.746767 81.1615189,394.378276 81.7178806,393.76413 L115.827614,371.01136 L151.542859,394.226547 C152.034168,394.566128 152.619422,394.717856 153.204675,394.717856 C153.544256,394.717856 153.847731,394.65284 154.187311,394.566128 C155.083254,394.255439 155.791325,393.583492 156.094689,392.71646 L199.042138,276.252095 C199.316703,275.789678 199.504629,275.233334 199.504629,274.648081 C199.475589,274.467461 199.41061,274.3085 199.381718,274.127862 L199.380516,274.127455 Z M163.702264,294.814145 L89.8450087,349.118557 C89.7221722,349.212483 89.6282461,349.306409 89.5343199,349.429246 C89.5054096,349.458138 89.4403938,349.49428 89.4114835,349.552082 C89.3464676,349.617098 89.2886655,349.70381 89.2236311,349.768845 C89.1586153,349.833861 89.129705,349.920573 89.0719029,349.985607 C88.9490664,350.17346 88.8551402,350.354098 88.7973381,350.570861 C88.7973381,350.599753 88.7684463,350.635877 88.7323038,350.693679 C88.7323038,350.693679 88.7323038,350.722589 88.7034119,350.722589 L80.2354455,378.243804 L73.5231841,341.019229 L163.702264,294.814145 Z M85.0414201,384.154974 L93.4444632,356.446943 L106.500532,364.943949 L110.228723,367.378852 L97.5411086,375.846819 L85.0414201,384.154974 Z M174.720738,282.256747 L70.1349432,335.824991 L26.6103965,312.885404 L174.720738,282.256747 Z M151.694218,386.957221 L104.28167,356.141748 L97.1069915,351.459867 L189.901151,283.210806 L151.694218,386.957221 Z" id="Fill-1" transform="translate(107.004629, 333.158241) rotate(-18.000000) translate(-107.004629, -333.158241) "></path>
                <g id="Group-4" transform="translate(333.000000, 34.000000)">
                    <path d="M84.277,0.0078 C76.4606,0.46483 62.386,1.8047 55.957,5.664 C47.6953,10.6288 39.547,19.945 32.969,28.887 L19.852,30.6018 C17.3208,30.93383 15.1176,32.594 14.102,34.9377 L11.0278,42.0354 C10.78561,42.5979 10.81296,43.2385 11.10202,43.7776 C11.39108,44.31666 11.91452,44.69166 12.51612,44.801 L21.45752,46.3791 C20.79346,47.5041 20.22702,48.4846 19.78172,49.2697 C18.58642,51.3752 18.94969,54.0392 20.66453,55.7541 L21.16453,56.2541 L19.04343,58.3752 C16.90673,60.5119 16.90673,63.9885 19.04343,66.1252 L23.87933,70.9611 C24.91453,71.9963 26.28953,72.5666 27.75433,72.5666 C29.21913,72.5666 30.59413,71.99629 31.62933,70.9611 L33.74653,68.8439 L34.24653,69.3439 C35.26993,70.3673 36.62933,70.9298 38.07073,70.9298 C39.00042,70.9298 39.91843,70.68761 40.73093,70.22667 C41.51609,69.78136 42.49653,69.21497 43.62153,68.55087 L45.19963,77.49227 C45.3051,78.09383 45.68401,78.61727 46.22303,78.90637 C46.51991,79.06653 46.84412,79.14465 47.16834,79.14465 C47.43787,79.14465 47.7074,79.08996 47.96522,78.98059 L55.06292,75.90639 C57.40672,74.89079 59.06682,72.68759 59.39882,70.15639 L61.11362,57.03939 C70.05892,50.46129 79.37562,42.31239 84.33662,34.05139 C88.19992,27.62169 89.53972,13.54739 89.99282,5.73139 C90.07875,4.22749 89.55923,2.79779 88.52802,1.70409 C87.43822,0.53999 85.89132,-0.08501 84.27802,0.00879 L84.277,0.0078 Z M15.703,41.3048 L17.7733,36.5314 C18.23033,35.4728 19.2264,34.7228 20.371,34.5744 L29.7968,33.3439 C27.4452,36.7423 25.3788,39.9572 23.6757,42.7189 L15.703,41.3048 Z M28.797,68.1288 C28.23841,68.68739 27.2618,68.68739 26.7032,68.1288 L21.8673,63.2929 C21.28917,62.71478 21.28917,61.7773 21.8673,61.1991 L23.9884,59.0819 L30.9142,66.0077 L28.797,68.1288 Z M55.43,69.6288 C55.28156,70.7733 54.53156,71.7694 53.473,72.2265 L48.6996,74.2968 L47.2894,66.328 C50.0472,64.6249 53.2621,62.5546 56.6644,60.2069 L55.43,69.6288 Z M80.907,31.9838 C71.7468,47.2258 46.329,62.4448 38.755,66.7458 C38.21594,67.05049 37.5128,66.94892 37.0753,66.51142 L35.1612,64.60122 C35.1612,64.60122 35.1612,64.59731 35.1573,64.59731 L25.39949,54.83951 C25.39949,54.83951 25.39559,54.83951 25.39559,54.83561 L23.48539,52.92541 C23.04008,52.4801 22.94242,51.78871 23.25101,51.24571 C27.55181,43.67151 42.76701,18.25371 58.01301,9.09371 C63.92321,5.54681 78.51301,4.35151 84.59901,3.99991 C84.98963,3.99991 85.35292,4.15616 85.62241,4.44132 C85.89194,4.72648 86.02475,5.09757 86.00132,5.49212 C85.64976,11.48822 84.45442,26.07812 80.90752,31.98412 L80.907,31.9838 Z" id="Fill-1"></path>
                    <path d="M64.406,15.262 C61.6443,15.262 59.0505,16.3362 57.1013,18.2893 C53.074,22.3166 53.074,28.8713 57.1013,32.8983 C59.0505,34.8475 61.6482,35.9256 64.406,35.9256 C67.1638,35.9256 69.7615,34.8514 71.7107,32.8983 C75.738,28.871 75.738,22.3163 71.7107,18.2893 C69.7615,16.3362 67.1677,15.262 64.406,15.262 Z M68.8865,30.071 C67.6912,31.2663 66.1013,31.9265 64.4099,31.9265 C62.7185,31.9265 61.1287,31.27025 59.9333,30.071 C57.4645,27.6022 57.4645,23.5866 59.9333,21.1179 C61.1286,19.9226 62.7185,19.2624 64.4099,19.2624 C66.1013,19.2624 67.6911,19.91865 68.8865,21.1179 C71.3553,23.5867 71.3553,27.6023 68.8865,30.071 Z" id="Fill-2"></path>
                    <path d="M11.789,67.152 C8.8359,67.152 6.0546,68.3043 3.968699,70.3903 C0.027299,74.3278 -0.0274,85.7693 0.0039,88.0233 C0.019525,89.1092 0.89452,89.9842 1.9805,89.9999 L2.25784,89.9999 C6.28514,89.9999 16.03484,89.61318 19.61284,86.0351 C21.70264,83.9453 22.85114,81.1679 22.85114,78.2148 C22.85114,75.2617 21.69884,72.4804 19.61284,70.3945 C17.51904,68.3047 14.74174,67.1523 11.78864,67.1523 L11.789,67.152 Z M16.7812,83.207 C15.0585,84.9297 9.2773,85.808601 4.023199,85.972601 C4.171639,81.164 5.0271,74.9886 6.7927,73.2186 C8.1286,71.8827 9.8982,71.1522 11.7849,71.1522 C13.6716,71.1522 15.4451,71.88658 16.7771,73.2186 C18.113,74.5545 18.8435,76.3241 18.8435,78.2108 C18.85131,80.1014 18.11694,81.871 16.781,83.2069 L16.7812,83.207 Z" id="Fill-3"></path>
                </g>
                <path d="M388.001645,7.02425824 C387.182694,6.2105705 386.633733,4.43122514 386.840711,3.30455592 C387.07469,2.0437943 386.705728,1.28376183 386.354736,0.872442872 C385.64379,0.0230002058 384.374852,-0.13796562 383.078889,0.505829012 C382.601923,0.74725486 381.917955,0.881370157 381.198001,0.881370157 C380.41506,0.881370157 379.668106,0.720427222 379.15513,0.44322356 C377.868221,-0.24527617 376.581267,-0.120088158 375.852328,0.738304684 C375.501359,1.14962364 375.123366,1.89177865 375.321359,3.13470859 C375.501359,4.27923238 374.898395,6.0406545 374.052444,6.82762905 C373.161498,7.66814443 372.810529,8.66960275 373.098511,9.57265491 C373.377484,10.4757529 374.232443,11.0927198 375.447288,11.2894406 C376.590205,11.468261 378.093031,12.58598 378.588129,13.6231246 C379.119098,14.7318935 379.974034,15.3846154 380.936906,15.3846154 C381.872846,15.3846154 382.727782,14.7676484 383.285683,13.7035846 C383.82566,12.6574212 385.328554,11.6023076 386.498404,11.4592421 C387.713318,11.3072265 388.58627,10.6992097 388.892337,9.80503902 C389.189326,8.90194108 388.865336,7.90048276 388.001391,7.02430402 L388.001645,7.02425824 Z M386.174759,9.0629298 C384.230884,9.31330582 382.016998,10.8691257 381.126098,12.5949302 C381.063111,12.7290455 380.991115,12.8184557 380.946121,12.8900113 C380.901127,12.8274288 380.829132,12.7290684 380.775129,12.5949302 C379.938186,10.8423896 377.760309,9.22384984 375.834519,8.91093704 C375.68152,8.8841094 375.564531,8.85728176 375.501543,8.85728176 L375.492535,8.85728176 C375.537529,8.78574902 375.618533,8.69633883 375.735523,8.58010099 C377.157437,7.24780663 378.030366,4.69055134 377.724392,2.76798028 C377.697391,2.60703735 377.697391,2.48184933 377.679398,2.42819406 C377.760401,2.44607152 377.868383,2.49077662 378.021381,2.57125953 C378.894334,3.04516105 380.019259,3.30446436 381.216133,3.30446436 C382.323064,3.30446436 383.375994,3.07198869 384.195013,2.66961991 C384.348012,2.58913699 384.455994,2.55338207 384.509996,2.51760426 C384.519004,2.59808717 384.509996,2.72327518 384.482995,2.88421812 C384.123018,4.79772455 384.923975,7.37281152 386.300872,8.74990254 C386.417862,8.86614037 386.489857,8.96450075 386.543859,9.00025567 C386.462856,9.00920585 386.336881,9.04498366 386.174874,9.06286112 L386.174759,9.0629298 Z" id="Fill-9"></path>
                <path d="M385.001645,170.024258 C384.182694,169.21057 383.633733,167.431225 383.840711,166.304556 C384.07469,165.043794 383.705728,164.283762 383.354736,163.872443 C382.64379,163.023 381.374852,162.862034 380.078889,163.505829 C379.601923,163.747255 378.917955,163.88137 378.198001,163.88137 C377.41506,163.88137 376.668106,163.720427 376.15513,163.443224 C374.868221,162.754724 373.581267,162.879912 372.852328,163.738305 C372.501359,164.149624 372.123366,164.891779 372.321359,166.134709 C372.501359,167.279232 371.898395,169.040654 371.052444,169.827629 C370.161498,170.668144 369.810529,171.669603 370.098511,172.572655 C370.377484,173.475753 371.232443,174.09272 372.447288,174.289441 C373.590205,174.468261 375.093031,175.58598 375.588129,176.623125 C376.119098,177.731893 376.974034,178.384615 377.936906,178.384615 C378.872846,178.384615 379.727782,177.767648 380.285683,176.703585 C380.82566,175.657421 382.328554,174.602308 383.498404,174.459242 C384.713318,174.307226 385.58627,173.69921 385.892337,172.805039 C386.189326,171.901941 385.865336,170.900483 385.001391,170.024304 L385.001645,170.024258 Z M383.174759,172.06293 C381.230884,172.313306 379.016998,173.869126 378.126098,175.59493 C378.063111,175.729046 377.991115,175.818456 377.946121,175.890011 C377.901127,175.827429 377.829132,175.729068 377.775129,175.59493 C376.938186,173.84239 374.760309,172.22385 372.834519,171.910937 C372.68152,171.884109 372.564531,171.857282 372.501543,171.857282 L372.492535,171.857282 C372.537529,171.785749 372.618533,171.696339 372.735523,171.580101 C374.157437,170.247807 375.030366,167.690551 374.724392,165.76798 C374.697391,165.607037 374.697391,165.481849 374.679398,165.428194 C374.760401,165.446072 374.868383,165.490777 375.021381,165.57126 C375.894334,166.045161 377.019259,166.304464 378.216133,166.304464 C379.323064,166.304464 380.375994,166.071989 381.195013,165.66962 C381.348012,165.589137 381.455994,165.553382 381.509996,165.517604 C381.519004,165.598087 381.509996,165.723275 381.482995,165.884218 C381.123018,167.797725 381.923975,170.372812 383.300872,171.749903 C383.417862,171.86614 383.489857,171.964501 383.543859,172.000256 C383.462856,172.009206 383.336881,172.044984 383.174874,172.062861 L383.174759,172.06293 Z" id="Fill-9"></path>
                <path d="M470.001645,48.0242582 C469.182694,47.2105705 468.633733,45.4312251 468.840711,44.3045559 C469.07469,43.0437943 468.705728,42.2837618 468.354736,41.8724429 C467.64379,41.0230002 466.374852,40.8620344 465.078889,41.505829 C464.601923,41.7472549 463.917955,41.8813702 463.198001,41.8813702 C462.41506,41.8813702 461.668106,41.7204272 461.15513,41.4432236 C459.868221,40.7547238 458.581267,40.8799118 457.852328,41.7383047 C457.501359,42.1496236 457.123366,42.8917786 457.321359,44.1347086 C457.501359,45.2792324 456.898395,47.0406545 456.052444,47.8276291 C455.161498,48.6681444 454.810529,49.6696027 455.098511,50.5726549 C455.377484,51.4757529 456.232443,52.0927198 457.447288,52.2894406 C458.590205,52.468261 460.093031,53.58598 460.588129,54.6231246 C461.119098,55.7318935 461.974034,56.3846154 462.936906,56.3846154 C463.872846,56.3846154 464.727782,55.7676484 465.285683,54.7035846 C465.82566,53.6574212 467.328554,52.6023076 468.498404,52.4592421 C469.713318,52.3072265 470.58627,51.6992097 470.892337,50.805039 C471.189326,49.9019411 470.865336,48.9004828 470.001391,48.024304 L470.001645,48.0242582 Z M468.174759,50.0629298 C466.230884,50.3133058 464.016998,51.8691257 463.126098,53.5949302 C463.063111,53.7290455 462.991115,53.8184557 462.946121,53.8900113 C462.901127,53.8274288 462.829132,53.7290684 462.775129,53.5949302 C461.938186,51.8423896 459.760309,50.2238498 457.834519,49.910937 C457.68152,49.8841094 457.564531,49.8572818 457.501543,49.8572818 L457.492535,49.8572818 C457.537529,49.785749 457.618533,49.6963388 457.735523,49.580101 C459.157437,48.2478066 460.030366,45.6905513 459.724392,43.7679803 C459.697391,43.6070373 459.697391,43.4818493 459.679398,43.4281941 C459.760401,43.4460715 459.868383,43.4907766 460.021381,43.5712595 C460.894334,44.0451611 462.019259,44.3044644 463.216133,44.3044644 C464.323064,44.3044644 465.375994,44.0719887 466.195013,43.6696199 C466.348012,43.589137 466.455994,43.5533821 466.509996,43.5176043 C466.519004,43.5980872 466.509996,43.7232752 466.482995,43.8842181 C466.123018,45.7977246 466.923975,48.3728115 468.300872,49.7499025 C468.417862,49.8661404 468.489857,49.9645007 468.543859,50.0002557 C468.462856,50.0092058 468.336881,50.0449837 468.174874,50.0628611 L468.174759,50.0629298 Z" id="Fill-9"></path>
                <path d="M288.001645,106.024258 C287.182694,105.21057 286.633733,103.431225 286.840711,102.304556 C287.07469,101.043794 286.705728,100.283762 286.354736,99.8724429 C285.64379,99.0230002 284.374852,98.8620344 283.078889,99.505829 C282.601923,99.7472549 281.917955,99.8813702 281.198001,99.8813702 C280.41506,99.8813702 279.668106,99.7204272 279.15513,99.4432236 C277.868221,98.7547238 276.581267,98.8799118 275.852328,99.7383047 C275.501359,100.149624 275.123366,100.891779 275.321359,102.134709 C275.501359,103.279232 274.898395,105.040654 274.052444,105.827629 C273.161498,106.668144 272.810529,107.669603 273.098511,108.572655 C273.377484,109.475753 274.232443,110.09272 275.447288,110.289441 C276.590205,110.468261 278.093031,111.58598 278.588129,112.623125 C279.119098,113.731893 279.974034,114.384615 280.936906,114.384615 C281.872846,114.384615 282.727782,113.767648 283.285683,112.703585 C283.82566,111.657421 285.328554,110.602308 286.498404,110.459242 C287.713318,110.307226 288.58627,109.69921 288.892337,108.805039 C289.189326,107.901941 288.865336,106.900483 288.001391,106.024304 L288.001645,106.024258 Z M286.174759,108.06293 C284.230884,108.313306 282.016998,109.869126 281.126098,111.59493 C281.063111,111.729046 280.991115,111.818456 280.946121,111.890011 C280.901127,111.827429 280.829132,111.729068 280.775129,111.59493 C279.938186,109.84239 277.760309,108.22385 275.834519,107.910937 C275.68152,107.884109 275.564531,107.857282 275.501543,107.857282 L275.492535,107.857282 C275.537529,107.785749 275.618533,107.696339 275.735523,107.580101 C277.157437,106.247807 278.030366,103.690551 277.724392,101.76798 C277.697391,101.607037 277.697391,101.481849 277.679398,101.428194 C277.760401,101.446072 277.868383,101.490777 278.021381,101.57126 C278.894334,102.045161 280.019259,102.304464 281.216133,102.304464 C282.323064,102.304464 283.375994,102.071989 284.195013,101.66962 C284.348012,101.589137 284.455994,101.553382 284.509996,101.517604 C284.519004,101.598087 284.509996,101.723275 284.482995,101.884218 C284.123018,103.797725 284.923975,106.372812 286.300872,107.749903 C286.417862,107.86614 286.489857,107.964501 286.543859,108.000256 C286.462856,108.009206 286.336881,108.044984 286.174874,108.062861 L286.174759,108.06293 Z" id="Fill-9"></path>
                <rect id="Rectangle-6" fill-rule="nonzero" transform="translate(319.101292, 109.798997) rotate(-50.000000) translate(-319.101292, -109.798997) " x="287.101292" y="107.798997" width="64" height="4" rx="2"></rect>
                <rect id="Rectangle-6" fill-rule="nonzero" transform="translate(343.101292, 143.798997) rotate(-50.000000) translate(-343.101292, -143.798997) " x="311.101292" y="141.798997" width="64" height="4" rx="2"></rect>
                <rect id="Rectangle-6" fill-rule="nonzero" transform="translate(303.101292, 160.798997) rotate(-50.000000) translate(-303.101292, -160.798997) " x="271.101292" y="158.798997" width="64" height="4" rx="2"></rect>
            </g>
        </g>
    </g>
</svg>