<?xml version="1.0" encoding="UTF-8"?>
<svg width="36px" height="52px" viewBox="0 0 36 52" version="1.1" xmlns="http://www.w3.org/2000/svg" xmlns:xlink="http://www.w3.org/1999/xlink">
    <!-- Generator: Sketch 51.3 (57544) - http://www.bohemiancoding.com/sketch -->
    <title>Fill 1</title>
    <desc>Created with Sketch.</desc>
    <defs></defs>
    <g id="Website" stroke="none" stroke-width="1" fill="none" fill-rule="evenodd">
        <g id="TeamSite---Landing-Page" transform="translate(-213.000000, -3559.000000)" fill="#FFFFFF">
            <g id="Group-3" transform="translate(211.000000, 3559.000000)">
                <path d="M28.4165076,1.16892395 C23.621906,1.16892395 19.5724494,4.79082996 19.0410797,9.58543159 L14.1406132,9.58543159 L11.3697171,4.04568494 C11.2638369,3.83192497 11.1559571,3.72604483 10.9441968,3.62016468 L4.65725943,0.102128927 C4.12384401,-0.109636481 3.4845638,-0.00375122001 3.27283419,0.529648851 C2.95319408,1.06106971 3.16495437,1.70034993 3.69835444,2.01999004 L9.66565171,5.21639113 L11.7972677,9.47757735 L3.16493903,9.47957702 C2.84529892,9.47957702 2.63351817,9.58545716 2.41979401,9.90509727 C2.20603405,10.1188572 2.1001539,10.3306175 2.1001539,10.6502423 L5.51033029,50.1797495 C5.51033029,50.7131648 6.04374571,51.1386697 6.57511542,51.1386697 L25.0083769,51.1386697 C25.5417924,51.1386697 26.0731621,50.7131495 26.0731621,50.1797495 L28.7361477,20.027716 C33.8503895,19.9218358 37.8998461,15.7665297 37.8998461,10.652288 C37.8998461,5.32427094 33.6386599,1.16894953 28.4165076,1.16894953 L28.4165076,1.16892395 Z M24.0494055,49.0070303 L7.63984941,49.0070303 L7.42608945,46.2361341 L24.2611504,46.2381323 L24.0494055,49.0070303 Z M24.4749257,44.1065634 L7.21435984,44.1065634 L4.33759886,11.609137 L27.2458219,11.609137 L24.4749257,44.1065634 Z M28.8440224,17.8960744 L29.4833027,10.7581272 C29.4833027,10.4384871 29.3774225,10.118847 29.1636626,9.9050717 C28.9499026,9.6912964 28.6302471,9.58543159 28.4185175,9.58543159 L21.1726598,9.58543159 C21.7060752,6.06939039 24.688701,3.29849422 28.4185175,3.29849422 C32.4679741,3.29849422 35.77024,6.60076011 35.77024,10.6502167 C35.7682404,14.485898 32.6797038,17.6822991 28.8440224,17.8960744 Z" id="Fill-1"></path>
            </g>
        </g>
    </g>
</svg>